<svg width="60" height="60" viewBox="0 0 60 60" fill="none" xmlns="http://www.w3.org/2000/svg">
<g clip-path="url(#clip0_3425_65)">
<path d="M45.4715 58.4746V52.7161C40.6951 53.7076 37.7337 48.9407 37.7337 48.9407C37.7337 48.9407 35.4601 52.8686 30.8175 52.8686C26.1748 52.8686 23.9012 48.9407 23.9012 48.9407C23.9012 48.9407 21.6467 52.8686 16.9849 52.8686C12.3232 52.8686 10.0687 48.9407 10.0687 48.9407C10.0687 48.9407 6.24755 53.7839 1.54755 52.7924V58.4746H45.4715Z" stroke="#0DA9FF" stroke-width="1.6" stroke-linejoin="round"/>
<path d="M45.4715 52.7542V45.089C40.6951 46.0805 37.7337 41.3136 37.7337 41.3136C37.7337 41.3136 35.4601 45.2415 30.8175 45.2415C26.1748 45.2415 23.9012 41.3136 23.9012 41.3136C23.9012 41.3136 21.6467 45.2415 16.9849 45.2415C12.3232 45.2415 10.0687 41.3136 10.0687 41.3136C10.0687 41.3136 6.24755 46.1568 1.54755 45.1653V52.7542" stroke="#0DA9FF" stroke-width="1.6" stroke-linejoin="round"/>
<path d="M45.4715 45.1271V37.4619C40.6951 38.4534 37.7337 33.6864 37.7337 33.6864C37.7337 33.6864 35.4601 37.6144 30.8175 37.6144C26.1748 37.6144 23.9012 33.6864 23.9012 33.6864C23.9012 33.6864 21.6467 37.6144 16.9849 37.6144C12.3232 37.6144 10.0687 33.6864 10.0687 33.6864C10.0687 33.6864 6.24755 38.5297 1.54755 37.5381V45.1271" stroke="#0DA9FF" stroke-width="1.6" stroke-linejoin="round"/>
<path d="M30.187 16.5254V31.7797" stroke="#00A443" stroke-width="1.6" stroke-linecap="round" stroke-linejoin="round"/>
<path d="M25.4105 21.2924L30.1869 16.5254L34.9634 21.2924" stroke="#00A443" stroke-width="1.6" stroke-linecap="round" stroke-linejoin="round"/>
<path d="M16.813 16.5254V31.7797" stroke="#00A443" stroke-width="1.6" stroke-linecap="round" stroke-linejoin="round"/>
<path d="M12.0366 21.2924L16.813 16.5254L21.5894 21.2924" stroke="#00A443" stroke-width="1.6" stroke-linecap="round" stroke-linejoin="round"/>
</g>
<defs>
<clipPath id="clip0_3425_65">
<rect width="47" height="45" fill="white" transform="translate(0 15)"/>
</clipPath>
</defs>
</svg>
